<?xml version="1.0" encoding="UTF-8"?>
<svg id="Capa_2" data-name="Capa 2" xmlns="http://www.w3.org/2000/svg" viewBox="0 0 523.65 126.7">
  <defs>
    <style>
      .cls-1 {
        fill: #f8f8f8;
        stroke-width: 0px;
      }
    </style>
  </defs>
  <g id="Layer_1" data-name="Layer 1">
    <g>
      <g>
        <path class="cls-1" d="m37.33,8.96c-.61-1.31-1.6-1.96-2.95-1.96h-.37c-1.47,0-2.46.66-2.95,1.96L.27,81.01c-.61,1.56-.16,2.7,1.35,3.44,1.64.65,2.78.21,3.44-1.35l8.22-19.09,2.77-6.44h0L34.39,15.1l17.12,40.15h0l3.19,7.47h0l8.65,20.38c.65,1.55,1.76,2,3.31,1.35,1.6-.74,2.05-1.88,1.35-3.44L37.33,8.96Z"/>
        <path class="cls-1" d="m104.13,28.11h-3.44c-10.76,0-18,3.23-21.73,9.7v-7.12c0-1.72-.86-2.58-2.58-2.58s-2.58.86-2.58,2.58v51.43c0,1.72.86,2.58,2.58,2.58s2.58-.86,2.58-2.58v-34.61c.41-4.87,2.43-8.46,6.08-10.77,3.64-2.31,8.86-3.47,15.65-3.47h3.44c6.02,0,10.24,1.22,12.67,3.65,2.43,2.43,3.65,6.66,3.65,12.67v32.53c0,1.72.86,2.58,2.58,2.58s2.58-.86,2.58-2.58v-32.53c0-7.49-1.71-12.94-5.12-16.36-3.42-3.42-8.87-5.12-16.36-5.12Z"/>
        <path class="cls-1" d="m183.03,0c-1.72,0-2.58.86-2.58,2.58v25.53h-26.39c-7.49,0-12.94,1.71-16.36,5.12-3.42,3.42-5.12,8.87-5.12,16.36v13.62c0,7.49,1.71,12.94,5.12,16.36,3.42,3.42,8.87,5.12,16.36,5.12h4.66c5.77,0,10.4-.79,13.9-2.36,3.5-1.57,6.11-3.9,7.83-6.97v6.75c0,1.72.86,2.58,2.58,2.58s2.58-.86,2.58-2.58V2.58c0-1.72-.86-2.58-2.58-2.58Zm-2.58,66.16c0,4.46-1.94,7.81-5.83,10.03-3.89,2.23-9.18,3.35-15.89,3.35h-4.66c-6.02,0-10.24-1.22-12.67-3.65-2.43-2.43-3.65-6.66-3.65-12.67v-13.62c0-6.01,1.22-10.24,3.65-12.67,2.43-2.43,6.66-3.65,12.67-3.65h26.39v32.9Z"/>
        <path class="cls-1" d="m228.57,30.69c0-1.72-.86-2.58-2.58-2.58-5.77,0-10.71,1.17-14.82,3.5-4.11,2.33-7.19,5.69-9.24,10.06v-10.99c0-1.72-.86-2.58-2.58-2.58s-2.58.86-2.58,2.58v51.43c0,1.72.86,2.58,2.58,2.58s2.58-.86,2.58-2.58v-28.23c.49-6.71,2.78-11.82,6.87-15.34,4.09-3.52,9.82-5.28,17.18-5.28,1.72,0,2.58-.86,2.58-2.58Z"/>
        <path class="cls-1" d="m255.2,20.13l11.05-13.01c.98-1.35.86-2.58-.37-3.68-1.31-1.19-2.54-1.06-3.68.37l-11.05,13.01c-.98,1.35-.86,2.58.37,3.68,1.31,1.19,2.54,1.06,3.68-.37Z"/>
        <path class="cls-1" d="m259.01,28.11h-10.06c-7.49-.08-12.94,1.59-16.36,5-3.42,3.42-5.12,8.91-5.12,16.48v13.75c0,7.41,1.71,12.82,5.12,16.23,3.42,3.42,8.87,5.12,16.36,5.12h10.06c6.87,0,12.05-1.22,15.53-3.65,3.48-2.43,5.42-6.25,5.83-11.45.08-.86-.1-1.52-.55-1.99-.45-.47-1.09-.7-1.9-.7-.86,0-1.51.21-1.93.64-.43.43-.69,1.07-.77,1.93-.37,3.68-1.78,6.28-4.24,7.79-2.46,1.51-6.44,2.27-11.97,2.27h-10.06c-6.01,0-10.24-1.22-12.67-3.65-2.43-2.43-3.65-6.62-3.65-12.55v-5.03h45.29c1.72,0,2.58-.86,2.58-2.58v-6.14c0-7.49-1.71-12.94-5.12-16.36-3.42-3.42-8.87-5.12-16.36-5.12Zm16.32,25.04h-42.71v-3.56c0-6.1,1.22-10.36,3.65-12.8,2.43-2.43,6.66-3.61,12.67-3.53h10.06c6.01,0,10.24,1.22,12.67,3.65,2.43,2.43,3.65,6.66,3.65,12.67v3.56Z"/>
        <path class="cls-1" d="m323.69,52.9h-19.89c-3.72,0-6.31-.72-7.76-2.15-1.45-1.43-2.18-3.99-2.18-7.67s.73-6.36,2.18-7.8c1.45-1.43,4.04-2.15,7.76-2.15h19.27c3.27,0,5.65.53,7.12,1.6,1.47,1.06,2.33,2.95,2.58,5.65.12.86.39,1.5.8,1.93.41.43,1.04.64,1.9.64s1.51-.23,1.96-.71c.45-.47.61-1.13.49-1.99-.74-8.18-5.69-12.28-14.85-12.28h-19.27c-5.15,0-8.96,1.21-11.42,3.62-2.46,2.41-3.68,6.24-3.68,11.48s1.23,8.94,3.68,11.35c2.46,2.41,6.26,3.62,11.42,3.62h19.89c4.05,0,6.84.78,8.38,2.33,1.53,1.55,2.3,4.34,2.3,8.35s-.77,6.74-2.3,8.32c-1.53,1.57-4.33,2.36-8.38,2.36h-20.13c-3.48,0-6.03-.6-7.64-1.81-1.62-1.21-2.59-3.3-2.92-6.29-.04-.86-.28-1.5-.7-1.93-.43-.43-1.05-.64-1.87-.64-.86,0-1.51.24-1.96.7-.45.47-.66,1.14-.61,1.99.45,4.46,1.94,7.76,4.48,9.91s6.28,3.22,11.23,3.22h20.13c5.48,0,9.49-1.28,12.03-3.84,2.54-2.56,3.81-6.56,3.81-12s-1.27-9.49-3.81-12.03c-2.54-2.54-6.55-3.81-12.03-3.81Z"/>
        <path class="cls-1" d="m402,51.68c5.44-.69,9.54-2.75,12.3-6.17,2.76-3.41,4.14-8.15,4.14-14.21v-3.68c0-6.83-1.73-11.98-5.19-15.44-3.46-3.46-8.6-5.19-15.44-5.19h-28.72c-1.72,0-2.58.86-2.58,2.58v72.54c0,1.72.86,2.58,2.58,2.58s2.58-.86,2.58-2.58v-30.19h24.3l20.5,32.16c.45.65.97,1.04,1.56,1.17.59.12,1.26-.02,1.99-.43,1.47-.86,1.72-2.05.74-3.56l-18.78-29.58Zm-30.32-4.91V12.15h26.14c5.36,0,9.28,1.24,11.75,3.71,2.48,2.48,3.71,6.39,3.71,11.75v3.68c0,5.32-1.24,9.23-3.71,11.72-2.48,2.5-6.39,3.74-11.75,3.74h-26.14Z"/>
        <path class="cls-1" d="m523.37,8.16c-.33-.78-1.1-1.17-2.33-1.17-.61,0-1.12.15-1.53.46-.41.31-.72.77-.92,1.38l-21.7,65.95-20.52-65.95c-.17-.69-.54-1.2-1.13-1.5-.59-.31-1.24-.46-1.93-.46-.65,0-1.28.15-1.87.46-.59.31-.99.81-1.2,1.5l-20.52,65.95-21.71-65.95c-.16-.61-.46-1.07-.89-1.38-.43-.31-.95-.46-1.56-.46-.98,0-1.7.39-2.15,1.17-.45.78-.55,1.53-.31,2.27l23.81,72.42c.37,1.23,1.23,1.84,2.58,1.84.74,0,1.37-.09,1.9-.28.53-.18.92-.7,1.17-1.56l20.74-66.5,20.74,66.5c.37,1.23,1.27,1.84,2.7,1.84h.25c1.43,0,2.33-.61,2.7-1.84l23.81-72.42c.24-.74.2-1.49-.12-2.27Z"/>
      </g>
      <g>
        <g>
          <path class="cls-1" d="m2.48,126.62c-.15,0-.28-.06-.4-.17-.11-.11-.17-.24-.17-.4,0-.03,0-.06,0-.09,0-.03,0-.05.02-.07l1.15-4.11h-1.77c-.15,0-.28-.06-.4-.17-.11-.11-.17-.24-.17-.4s.06-.29.17-.4c.11-.11.24-.16.4-.16h2.1l.96-3.46h-1.77c-.15,0-.28-.06-.4-.17-.11-.11-.17-.24-.17-.39,0-.16.06-.29.17-.4.11-.11.24-.16.4-.16h2.07l1.17-4.16c.04-.12.11-.22.2-.3.09-.08.21-.12.34-.12.16,0,.29.05.4.16s.16.24.16.4c0,.02,0,.05,0,.07,0,.03,0,.06-.02.09l-1.08,3.86h2.95l1.17-4.16c.04-.12.1-.22.2-.3s.21-.12.34-.12c.16,0,.29.05.4.16s.16.24.16.4c0,.02,0,.05,0,.07,0,.03,0,.06-.02.09l-1.08,3.86h2.42c.16,0,.29.05.4.16s.16.24.16.4-.05.28-.16.39c-.11.11-.24.17-.4.17h-2.72l-.96,3.46h2.4c.16,0,.29.05.4.16.11.11.16.24.16.4s-.05.28-.16.4c-.11.11-.24.17-.4.17h-2.71l-1.24,4.41c-.03.11-.1.21-.19.3-.1.08-.21.13-.34.13-.15,0-.28-.06-.4-.17s-.17-.24-.17-.4c0-.03,0-.06,0-.09s0-.05.02-.07l1.15-4.11h-2.95l-1.24,4.41c-.03.11-.1.21-.19.3-.1.08-.21.13-.34.13Zm2.08-5.95h2.96l.96-3.46h-2.97l-.96,3.46Z"/>
          <path class="cls-1" d="m15.99,126.56c-.4,0-.61-.2-.61-.61v-13.54c0-.4.2-.61.61-.61h5.52c1.9,0,3.28.44,4.15,1.31.87.87,1.3,2.26,1.3,4.16v3.84c0,1.9-.43,3.29-1.3,4.16-.87.87-2.25,1.31-4.15,1.31h-5.52Zm.6-1.2h4.92c1.04,0,1.87-.14,2.49-.41.62-.27,1.07-.72,1.35-1.35.27-.62.41-1.46.41-2.5v-3.84c0-1.04-.14-1.87-.41-2.49-.28-.62-.72-1.07-1.35-1.35-.62-.28-1.45-.42-2.49-.42h-4.92v12.35Z"/>
          <path class="cls-1" d="m31.54,126.56c-.4,0-.61-.2-.61-.61v-13.54c0-.4.2-.61.61-.61h8.57c.4,0,.61.2.61.61s-.2.6-.61.6h-7.98v5.48h5.28c.4,0,.61.2.61.6s-.2.61-.61.61h-5.28v5.67h7.98c.4,0,.61.2.61.6s-.2.61-.61.61h-8.57Z"/>
          <path class="cls-1" d="m48.52,126.56c-.26,0-.45-.14-.56-.41l-5.94-13.49c-.1-.22-.1-.4,0-.55.1-.15.25-.24.43-.27.31-.08.53.04.65.34l5.72,12.98h-.42l5.69-12.98c.12-.31.34-.42.66-.34.2.04.34.13.44.27.09.14.09.33,0,.55l-5.96,13.49c-.11.27-.31.41-.58.41h-.13Z"/>
          <path class="cls-1" d="m58.32,126.56c-.4,0-.61-.2-.61-.61v-13.54c0-.4.2-.61.61-.61h8.57c.4,0,.61.2.61.61s-.2.6-.61.6h-7.98v5.48h5.28c.4,0,.61.2.61.6s-.2.61-.61.61h-5.28v5.67h7.98c.4,0,.61.2.61.6s-.2.61-.61.61h-8.57Z"/>
          <path class="cls-1" d="m71.16,126.56c-.4,0-.61-.2-.61-.61v-13.54c0-.4.2-.61.61-.61s.6.2.6.61v12.95h6.96c.4,0,.61.2.61.6s-.2.61-.61.61h-7.56Z"/>
          <path class="cls-1" d="m86.01,126.56c-1.66,0-2.87-.38-3.63-1.15-.76-.76-1.15-1.97-1.15-3.63v-5.22c0-1.67.38-2.89,1.15-3.65.76-.76,1.97-1.13,3.61-1.12h2.77c1.66,0,2.86.38,3.62,1.15.76.76,1.14,1.97,1.14,3.63v5.21c0,1.66-.38,2.87-1.14,3.63-.76.76-1.97,1.15-3.62,1.15h-2.75Zm0-1.2h2.75c.88,0,1.58-.11,2.1-.34.52-.23.89-.6,1.12-1.12.23-.52.34-1.22.34-2.11v-5.21c0-.88-.11-1.58-.34-2.1s-.6-.89-1.12-1.13c-.52-.23-1.22-.35-2.1-.35h-2.77c-.88,0-1.57.1-2.09.33-.52.23-.89.6-1.12,1.12-.23.52-.34,1.23-.34,2.11v5.22c0,.89.11,1.59.34,2.11.23.52.6.89,1.12,1.12.52.23,1.22.34,2.11.34Z"/>
          <path class="cls-1" d="m98.1,126.56c-.4,0-.61-.2-.61-.61v-13.54c0-.4.2-.61.61-.61h5.36c1.31,0,2.29.34,2.96,1.01.67.67,1,1.66,1,2.97v.69c0,1.3-.33,2.28-1,2.95-.67.67-1.65,1.01-2.96,1.01h-4.76v5.53c0,.4-.2.61-.6.61Zm.6-7.34h4.76c.96,0,1.66-.22,2.1-.66.44-.44.66-1.14.66-2.1v-.69c0-.97-.22-1.67-.66-2.11s-1.14-.66-2.1-.66h-4.76v6.22Z"/>
          <path class="cls-1" d="m110.94,126.56c-.4,0-.61-.2-.61-.61v-13.54c0-.4.2-.61.61-.61h8.57c.4,0,.61.2.61.61s-.2.6-.61.6h-7.98v5.48h5.28c.4,0,.61.2.61.6s-.2.61-.61.61h-5.28v5.67h7.98c.4,0,.61.2.61.6s-.2.61-.61.61h-8.57Z"/>
          <path class="cls-1" d="m133.16,126.59c-.17.1-.32.13-.46.1s-.26-.13-.37-.29l-3.76-5.98h-4.2v5.53c0,.4-.2.61-.6.61s-.61-.2-.61-.61v-13.54c0-.4.2-.61.61-.61h5.36c1.31,0,2.29.34,2.96,1.01.67.67,1,1.66,1,2.97v.69c0,1.15-.26,2.06-.79,2.71-.53.66-1.31,1.06-2.34,1.2l3.38,5.38c.21.35.15.63-.19.82Zm-8.78-7.36h4.76c.96,0,1.66-.22,2.1-.66.44-.44.66-1.14.66-2.1v-.69c0-.97-.22-1.67-.66-2.11s-1.14-.66-2.1-.66h-4.76v6.22Z"/>
          <path class="cls-1" d="m177.34,126.62c-.15,0-.28-.06-.4-.17-.11-.11-.17-.24-.17-.4,0-.03,0-.06,0-.09,0-.03,0-.05.02-.07l1.15-4.11h-1.77c-.15,0-.28-.06-.4-.17-.11-.11-.17-.24-.17-.4s.06-.29.17-.4c.11-.11.24-.16.4-.16h2.1l.96-3.46h-1.77c-.15,0-.28-.06-.4-.17-.11-.11-.17-.24-.17-.39,0-.16.06-.29.17-.4.11-.11.24-.16.4-.16h2.07l1.17-4.16c.04-.12.11-.22.2-.3.09-.08.21-.12.34-.12.16,0,.29.05.4.16s.16.24.16.4c0,.02,0,.05,0,.07,0,.03,0,.06-.02.09l-1.08,3.86h2.95l1.17-4.16c.04-.12.1-.22.2-.3s.21-.12.34-.12c.16,0,.29.05.4.16s.16.24.16.4c0,.02,0,.05,0,.07,0,.03,0,.06-.02.09l-1.08,3.86h2.42c.16,0,.29.05.4.16s.16.24.16.4-.05.28-.16.39c-.11.11-.24.17-.4.17h-2.72l-.96,3.46h2.4c.16,0,.29.05.4.16.11.11.16.24.16.4s-.05.28-.16.4c-.11.11-.24.17-.4.17h-2.71l-1.24,4.41c-.03.11-.1.21-.19.3-.1.08-.21.13-.34.13-.15,0-.28-.06-.4-.17s-.17-.24-.17-.4c0-.03,0-.06,0-.09s0-.05.02-.07l1.15-4.11h-2.95l-1.24,4.41c-.03.11-.1.21-.19.3-.1.08-.21.13-.34.13Zm2.08-5.95h2.96l.96-3.46h-2.97l-.96,3.46Z"/>
          <path class="cls-1" d="m193.4,126.56c-.29,0-.48-.16-.58-.47l-4.39-13.49c-.06-.18-.04-.35.07-.53s.27-.27.5-.27c.13,0,.25.04.35.11.1.07.17.18.21.33l4.08,12.52h-.33l3.86-12.49c.05-.17.15-.29.28-.37.13-.08.27-.11.42-.11.15,0,.3.04.44.11s.22.2.26.37l3.86,12.49h-.33l4.08-12.52c.05-.15.13-.25.22-.33.1-.07.21-.11.34-.11.26,0,.44.09.53.26s.11.35.05.54l-4.4,13.49c-.1.31-.31.47-.63.47h-.05c-.33,0-.54-.16-.63-.47l-3.93-12.62h.33l-3.93,12.62c-.05.19-.14.32-.25.38-.11.06-.26.09-.44.09Z"/>
          <path class="cls-1" d="m210.41,126.56c-.4,0-.61-.2-.61-.61v-13.54c0-.4.2-.61.61-.61h8.57c.4,0,.61.2.61.61s-.2.6-.61.6h-7.98v5.48h5.28c.4,0,.61.2.61.6s-.2.61-.61.61h-5.28v5.67h7.98c.4,0,.61.2.61.6s-.2.61-.61.61h-8.57Z"/>
          <path class="cls-1" d="m223.26,126.56c-.4,0-.61-.2-.61-.61v-13.54c0-.4.2-.61.61-.61h5.98c1.12,0,1.97.28,2.55.85.58.57.86,1.4.86,2.5v.62c0,1.2-.39,2.05-1.16,2.54,1.34.55,2,1.74,2,3.57v.72c0,1.3-.33,2.28-1,2.95-.67.67-1.65,1-2.96,1h-6.27Zm.6-8.6h5.55c.69,0,1.21-.18,1.54-.53.33-.35.5-.91.5-1.65v-.62c0-.76-.17-1.31-.52-1.65-.35-.34-.91-.5-1.69-.5h-5.38v4.96Zm0,7.4h5.68c.97,0,1.67-.22,2.11-.65s.65-1.13.65-2.1v-.72c0-.96-.22-1.66-.65-2.08-.43-.43-1.14-.64-2.11-.64h-5.68v6.19Z"/>
          <path class="cls-1" d="m243.21,126.56c-.4,0-.61-.2-.61-.61v-13.54c0-.4.2-.61.61-.61.29,0,.52.13.69.4l5.7,8.71-.27.03,5.7-8.75c.16-.27.4-.4.72-.4.36,0,.54.2.54.61v13.54c0,.4-.2.61-.6.61s-.61-.2-.61-.61v-12.34l.35.11-5.29,8.06c-.17.26-.41.39-.72.39-.27,0-.5-.13-.66-.39l-5.29-8.06.33.13v12.1c0,.4-.2.61-.6.61Z"/>
          <path class="cls-1" d="m259.41,126.51c-.37-.16-.48-.43-.33-.8l5.68-13.43c.12-.31.35-.47.68-.47h.07c.31,0,.53.16.66.47l5.68,13.43c.15.37.05.64-.32.8-.37.15-.63.05-.78-.32l-1.52-3.61h-7.5l-1.52,3.61c-.15.37-.42.47-.79.32Zm2.8-5.13h6.5l-3.25-7.67-3.25,7.67Z"/>
          <path class="cls-1" d="m277.74,126.54c-1.37,0-2.38-.3-3.04-.91s-1.01-1.56-1.06-2.87c0-.18.04-.33.15-.44.11-.11.26-.17.44-.17s.33.05.44.16.17.25.18.43c.03.96.26,1.63.69,2.02.43.38,1.16.57,2.2.57h3.3c1.08,0,1.84-.21,2.26-.64.42-.42.64-1.17.64-2.24s-.21-1.84-.64-2.26c-.42-.42-1.18-.64-2.26-.64h-3.14c-1.34,0-2.33-.31-2.95-.94-.63-.63-.94-1.61-.94-2.94s.31-2.32.93-2.94c.62-.63,1.6-.94,2.94-.94h3.21c1.28,0,2.23.29,2.86.86.62.57.96,1.47,1,2.7.02.18-.03.33-.14.44-.11.11-.26.17-.45.17-.18,0-.32-.05-.42-.16s-.17-.25-.18-.44c-.03-.88-.24-1.49-.64-1.84s-1.07-.53-2.01-.53h-3.21c-1,0-1.69.2-2.08.59-.39.39-.58,1.09-.58,2.09s.2,1.7.59,2.09c.39.39,1.09.59,2.1.59h3.14c1.42,0,2.46.33,3.11.99.66.66.98,1.7.98,3.11s-.33,2.44-.98,3.1c-.66.65-1.69.98-3.11.98h-3.3Z"/>
          <path class="cls-1" d="m292.33,126.57c-.18,0-.33-.05-.44-.16s-.17-.25-.17-.44v-12.98h-4.87c-.18,0-.33-.05-.44-.16s-.17-.25-.17-.44.05-.33.17-.44c.11-.11.26-.17.44-.17h10.95c.18,0,.33.06.44.17.11.11.16.26.16.44s-.05.33-.16.44c-.11.11-.25.16-.44.16h-4.88v12.98c0,.18-.06.32-.17.43-.11.11-.25.17-.43.17Z"/>
          <path class="cls-1" d="m301.57,126.56c-.4,0-.61-.2-.61-.61v-13.54c0-.4.2-.61.61-.61h8.57c.4,0,.61.2.61.61s-.2.6-.61.6h-7.98v5.48h5.28c.4,0,.61.2.61.6s-.2.61-.61.61h-5.28v5.67h7.98c.4,0,.61.2.61.6s-.2.61-.61.61h-8.57Z"/>
          <path class="cls-1" d="m323.79,126.59c-.17.1-.32.13-.46.1s-.26-.13-.37-.29l-3.76-5.98h-4.2v5.53c0,.4-.2.61-.6.61s-.61-.2-.61-.61v-13.54c0-.4.2-.61.61-.61h5.36c1.31,0,2.29.34,2.96,1.01.67.67,1,1.66,1,2.97v.69c0,1.15-.26,2.06-.79,2.71-.53.66-1.31,1.06-2.34,1.2l3.38,5.38c.21.35.15.63-.19.82Zm-8.78-7.36h4.76c.96,0,1.66-.22,2.1-.66.44-.44.66-1.14.66-2.1v-.69c0-.97-.22-1.67-.66-2.11s-1.14-.66-2.1-.66h-4.76v6.22Z"/>
          <path class="cls-1" d="m362.22,126.62c-.15,0-.28-.06-.4-.17-.11-.11-.17-.24-.17-.4,0-.03,0-.06,0-.09,0-.03,0-.05.02-.07l1.15-4.11h-1.77c-.15,0-.28-.06-.4-.17-.11-.11-.17-.24-.17-.4s.06-.29.17-.4c.11-.11.24-.16.4-.16h2.1l.96-3.46h-1.77c-.15,0-.28-.06-.4-.17-.11-.11-.17-.24-.17-.39,0-.16.06-.29.17-.4.11-.11.24-.16.4-.16h2.07l1.17-4.16c.04-.12.11-.22.2-.3.09-.08.21-.12.34-.12.16,0,.29.05.4.16s.16.24.16.4c0,.02,0,.05,0,.07,0,.03,0,.06-.02.09l-1.08,3.86h2.95l1.17-4.16c.04-.12.1-.22.2-.3s.21-.12.34-.12c.16,0,.29.05.4.16s.16.24.16.4c0,.02,0,.05,0,.07,0,.03,0,.06-.02.09l-1.08,3.86h2.42c.16,0,.29.05.4.16s.16.24.16.4-.05.28-.16.39c-.11.11-.24.17-.4.17h-2.72l-.96,3.46h2.4c.16,0,.29.05.4.16.11.11.16.24.16.4s-.05.28-.16.4c-.11.11-.24.17-.4.17h-2.71l-1.24,4.41c-.03.11-.1.21-.19.3-.1.08-.21.13-.34.13-.15,0-.28-.06-.4-.17s-.17-.24-.17-.4c0-.03,0-.06,0-.09s0-.05.02-.07l1.15-4.11h-2.95l-1.24,4.41c-.03.11-.1.21-.19.3-.1.08-.21.13-.34.13Zm2.08-5.95h2.96l.96-3.46h-2.97l-.96,3.46Z"/>
          <path class="cls-1" d="m375.73,126.56c-.4,0-.61-.2-.61-.61v-13.54c0-.4.2-.61.61-.61h5.52c1.9,0,3.28.44,4.15,1.31.87.87,1.3,2.26,1.3,4.16v3.84c0,1.9-.43,3.29-1.3,4.16-.87.87-2.25,1.31-4.15,1.31h-5.52Zm.6-1.2h4.92c1.04,0,1.87-.14,2.49-.41.62-.27,1.07-.72,1.35-1.35.27-.62.41-1.46.41-2.5v-3.84c0-1.04-.14-1.87-.41-2.49-.28-.62-.72-1.07-1.35-1.35-.62-.28-1.45-.42-2.49-.42h-4.92v12.35Z"/>
          <path class="cls-1" d="m389.29,126.51c-.37-.16-.48-.43-.33-.8l5.68-13.43c.12-.31.35-.47.68-.47h.07c.31,0,.53.16.66.47l5.68,13.43c.15.37.05.64-.32.8-.37.15-.63.05-.78-.32l-1.52-3.61h-7.5l-1.52,3.61c-.15.37-.42.47-.79.32Zm2.8-5.13h6.5l-3.25-7.67-3.25,7.67Z"/>
          <path class="cls-1" d="m407.04,126.57c-.18,0-.33-.05-.44-.16s-.17-.25-.17-.44v-12.98h-4.87c-.18,0-.33-.05-.44-.16s-.17-.25-.17-.44.05-.33.17-.44c.11-.11.26-.17.44-.17h10.95c.18,0,.33.06.44.17.11.11.16.26.16.44s-.05.33-.16.44c-.11.11-.25.16-.44.16h-4.88v12.98c0,.18-.06.32-.17.43-.11.11-.25.17-.43.17Z"/>
          <path class="cls-1" d="m412.69,126.51c-.37-.16-.48-.43-.33-.8l5.68-13.43c.12-.31.35-.47.68-.47h.07c.31,0,.53.16.66.47l5.68,13.43c.15.37.05.64-.32.8-.37.15-.63.05-.78-.32l-1.52-3.61h-7.5l-1.52,3.61c-.15.37-.42.47-.79.32Zm2.8-5.13h6.5l-3.25-7.67-3.25,7.67Z"/>
          <path class="cls-1" d="m432.51,126.51c-.37-.16-.48-.43-.33-.8l5.68-13.43c.12-.31.35-.47.68-.47h.07c.31,0,.53.16.66.47l5.68,13.43c.15.37.05.64-.32.8-.37.15-.63.05-.78-.32l-1.52-3.61h-7.5l-1.52,3.61c-.15.37-.42.47-.79.32Zm2.8-5.13h6.5l-3.25-7.67-3.25,7.67Z"/>
          <path class="cls-1" d="m448.34,126.56c-.4,0-.61-.2-.61-.61v-13.54c0-.4.2-.61.61-.61.21,0,.42.12.62.35l9.7,12.46h-.27v-12.2c0-.4.2-.61.61-.61s.6.2.6.61v13.54c0,.4-.2.61-.6.61-.22,0-.43-.12-.62-.35l-9.71-12.46h.27v12.2c0,.4-.2.61-.6.61Z"/>
          <path class="cls-1" d="m462.71,126.51c-.37-.16-.48-.43-.33-.8l5.68-13.43c.12-.31.35-.47.68-.47h.07c.31,0,.53.16.66.47l5.68,13.43c.15.37.05.64-.32.8-.37.15-.63.05-.78-.32l-1.52-3.61h-7.5l-1.52,3.61c-.15.37-.42.47-.79.32Zm2.8-5.13h6.5l-3.25-7.67-3.25,7.67Z"/>
          <path class="cls-1" d="m478.54,126.56c-.4,0-.61-.2-.61-.61v-13.54c0-.4.2-.61.61-.61s.6.2.6.61v12.95h6.96c.4,0,.61.2.61.6s-.2.61-.61.61h-7.56Z"/>
          <path class="cls-1" d="m491.09,126.56c-.4,0-.6-.2-.6-.61v-5.09l-5.13-8.11c-.21-.33-.14-.61.19-.84.34-.21.62-.15.84.19l4.69,7.45,4.77-7.46c.11-.16.23-.26.37-.29s.29,0,.46.11c.34.21.4.48.18.82l-5.17,8.11v5.09c0,.4-.2.61-.61.61Z"/>
          <path class="cls-1" d="m502.56,126.54c-1.37,0-2.38-.3-3.04-.91-.66-.61-1.01-1.56-1.06-2.87,0-.18.04-.33.15-.44.11-.11.26-.17.44-.17s.33.05.44.16.17.25.18.43c.03.96.26,1.63.69,2.02.43.38,1.16.57,2.2.57h3.3c1.08,0,1.84-.21,2.26-.64.42-.42.64-1.17.64-2.24s-.21-1.84-.64-2.26c-.42-.42-1.18-.64-2.26-.64h-3.14c-1.34,0-2.33-.31-2.95-.94-.63-.63-.94-1.61-.94-2.94s.31-2.32.93-2.94c.62-.63,1.6-.94,2.94-.94h3.21c1.28,0,2.23.29,2.86.86s.96,1.47,1,2.7c.02.18-.03.33-.14.44-.11.11-.26.17-.45.17-.18,0-.32-.05-.42-.16s-.17-.25-.18-.44c-.03-.88-.24-1.49-.64-1.84s-1.07-.53-2.01-.53h-3.21c-1,0-1.69.2-2.08.59-.39.39-.58,1.09-.58,2.09s.2,1.7.59,2.09c.39.39,1.09.59,2.1.59h3.14c1.42,0,2.46.33,3.11.99.66.66.98,1.7.98,3.11s-.33,2.44-.98,3.1c-.66.65-1.69.98-3.11.98h-3.3Z"/>
          <path class="cls-1" d="m517.15,126.57c-.18,0-.33-.05-.44-.16s-.17-.25-.17-.44v-12.98h-4.87c-.18,0-.33-.05-.44-.16s-.17-.25-.17-.44.05-.33.17-.44c.11-.11.26-.17.44-.17h10.95c.18,0,.33.06.44.17.11.11.16.26.16.44s-.05.33-.16.44c-.11.11-.25.16-.44.16h-4.88v12.98c0,.18-.06.32-.17.43-.11.11-.25.17-.43.17Z"/>
        </g>
        <rect class="cls-1" x="152.39" y="110.11" width=".96" height="16.25" rx=".03" ry=".03"/>
        <rect class="cls-1" x="343.79" y="110.11" width=".96" height="16.25" rx=".03" ry=".03"/>
      </g>
    </g>
  </g>
</svg>